 http://s9.postimage.org/s7alrnkqn/tiktik.png



Tiktik The Aswang Chronicles 2012 DVDRip EP




info:

Imdb                             : http://www.imdb.com/title/tt2239866/
Genres                           : Action | Drama | Horror 
Director                         : Erik Matti
Writers                          : Ronald Stephen Monteverde (story), Erik Matti (story)
Audio Language                   : Filipino | Tagalog
Country                          : Philippines
Subtitles                        : N/A


General
Complete name                            : Tiktik The Aswang Chronicles 2012 DVDRip EP.avi
Format                                   : AVI
Format/Info                              : Audio Video Interleave
File size                                : 895 MiB
Duration                                 : 1h 38mn
Overall bit rate                         : 1 272 Kbps
Writing application                      : VirtualDubMod

Video
ID                                       : 0
Format                                   : AVC
Format/Info                              : Advanced Video Codec
Format profile                           : High@L3.1
Format settings, CABAC                   : Yes
Format settings, ReFrames                : 3 frames
Codec ID                                 : H264
Duration                                 : 1h 38mn
Bit rate                                 : 1 071 Kbps
Width                                    : 1 280 pixels
Height                                   : 720 pixels
Display aspect ratio                     : 16:9
Frame rate                               : 25.000 fps
Color space                              : YUV
Chroma subsampling                       : 4:2:0
Bit depth                                : 8 bits
Scan type                                : Progressive
Bits/(Pixel*Frame)                       : 0.046
Stream size                              : 753 MiB (84%)
Writing library                          : x264 core 119 r2106kMod 07efeb4
Encoding settings                        : cabac=1 / ref=3 / deblock=1:0:0

Audio
ID                                       : 1
Format                                   : MPEG Audio
Format version                           : Version 1
Format profile                           : Layer 3
Codec ID                                 : 55
Codec ID/Hint                            : MP3
Duration                                 : 1h 38mn
Bit rate mode                            : Constant
Bit rate                                 : 192 Kbps
Channel(s)                               : 2 channels
Sampling rate                            : 44.1 KHz
Compression mode                         : Lossy
Stream size                              : 135 MiB (15%)
Alignment                                : Split accross interleaves
Interleave, duration                     : 40 ms (1.00 video frame)
Interleave, preload duration             : 500 ms
Writing library                          : LAMELAME_MAJOR_VERSI




cast:


Dingdong Dantes ..... Makoy
Lovi Poe ............ Sonia
Joey Marquez ........ Nestor
Janice de Belen ..... Fely
Roi Vinzon .......... Tatang
LJ Reyes ............ Hilda
Ramon Bautista ...... Bart
Mike Gayoso ......... Ringo
Rina Reyes .......... Pacing
Roldan Aquino ....... Capt. Rainier Regalado
Jan Harley Licana ... Abel
Dwight Gaston ....... Rex
Cris Pastor ......... Mutya
RJ Salvador ......... Kulot
Jeff Fernandez ...... Kulas
Montito Almario ..... Cedric





plot:

 
With dark shades on and a burning cigarette between his lips, Makoy will do whatever it takes to get back his 

girlfriend Sonia, who's pregnant with their child. He makes the trip to remote Pulupandan, her hometown, 

and is quickly rebuffed by Sonia's mother Fely. But Makoy has never been one to give up. With the help of Sonia's 

father Nestor and his ever-dependable helper Bart, Makoy stays in town to surprise Sonia on her birthday. But alas, 

Makoy gets into trouble with a group of townsfolk who transform into tiktikΓÇöhorrific, man-eating creatures with a taste 

for fetuses that are still in the womb. They are angry, and they are hungry for revenge. Will their thirst for blood and 

retribution be quenched? Will Makoy finally get his act together, protect Sonia and their baby, and once and for all 

prove himself worthy of their love? Who will win in the battle between men and monsters?



ScreenShot:
 
http://s9.postimage.org/l91w7yx8f/image.jpg 
http://s9.postimage.org/6r9adpvb3/image.jpg 
http://s9.postimage.org/630furwlb/image.jpg 
http://s9.postimage.org/8lm4vgibj/image.jpg 
http://s9.postimage.org/o8de8tw3j/image.jpg 
http://s9.postimage.org/l2ssimdhb/image.jpg